<?xml version="1.0" standalone="no"?>
<!DOCTYPE svg PUBLIC "-//W3C//DTD SVG 20010904//EN"
 "http://www.w3.org/TR/2001/REC-SVG-20010904/DTD/svg10.dtd">
<svg version="1.0" xmlns="http://www.w3.org/2000/svg"
 width="225.000000pt" height="225.000000pt" viewBox="0 0 225.000000 225.000000"
 preserveAspectRatio="xMidYMid meet">
<metadata>
Created by potrace 1.15, written by Peter Selinger 2001-2017
</metadata>
<g transform="translate(0.000000,225.000000) scale(0.100000,-0.100000)"
fill="#000000" stroke="none">
<path d="M959 2240 c-107 -10 -227 -42 -293 -78 -113 -62 -189 -177 -221 -336
-38 -190 -38 -555 0 -668 16 -46 40 -76 51 -65 8 7 20 127 34 327 13 193 21
224 74 277 58 58 93 61 292 29 199 -33 269 -33 468 0 191 31 230 28 287 -23
55 -50 67 -100 84 -359 18 -266 23 -287 60 -230 30 46 45 155 45 336 0 200
-12 323 -41 430 -53 195 -170 299 -390 344 -92 18 -335 27 -450 16z"/>
<path d="M760 1260 c-12 -12 -20 -33 -20 -55 0 -71 77 -102 120 -48 54 69 -38
165 -100 103z"/>
<path d="M1401 1254 c-12 -15 -21 -37 -21 -49 0 -36 37 -75 71 -75 64 0 94 83
46 128 -32 30 -71 28 -96 -4z"/>
<path d="M638 723 c23 -42 116 -122 176 -151 198 -98 488 -89 658 19 47 31
123 103 141 135 8 15 4 14 -24 -5 -63 -42 -194 -101 -245 -110 -57 -11 -84 -7
-133 23 -49 29 -125 27 -177 -3 -82 -50 -206 -19 -380 96 -27 17 -27 17 -16
-4z"/>
<path d="M740 364 c-19 -8 -37 -18 -40 -22 -3 -4 -48 -29 -101 -55 -150 -75
-265 -180 -284 -260 l-7 -27 241 0 241 0 0 190 c0 105 -3 190 -7 190 -5 -1
-24 -8 -43 -16z"/>
<path d="M1460 190 l0 -190 240 0 c158 0 240 4 240 10 0 25 -31 81 -66 119
-46 52 -191 149 -267 181 -31 13 -57 27 -57 31 0 6 -72 39 -85 39 -3 0 -5 -85
-5 -190z"/>
</g>
</svg>
