<?xml version="1.0" encoding="iso-8859-1"?>
<!-- Generator: Adobe Illustrator 19.0.0, SVG Export Plug-In . SVG Version: 6.00 Build 0)  -->
<svg version="1.1" id="Capa_1" xmlns="http://www.w3.org/2000/svg" xmlns:xlink="http://www.w3.org/1999/xlink" x="0px" y="0px"
	 viewBox="0 0 512 512" style="enable-background:new 0 0 512 512;" xml:space="preserve">
<path style="fill:#B7E0F6;" d="M271,316v90c0,8.399-6.599,15-15,15s-15-6.601-15-15v-90c0-8.401,6.599-15,15-15S271,307.599,271,316
	z"/>
<path style="fill:#CAE8F9;" d="M361,106v115.8L339.101,241L256,216.7l-73.2-21.301L151,175.6V106c0-8.401,6.599-15,15-15h180
	C354.401,91,361,97.599,361,106z"/>
<path style="fill:#A4D9F5;" d="M271,316v90c0,8.399-6.599,15-15,15V301C264.401,301,271,307.599,271,316z"/>
<path style="fill:#B7E0F6;" d="M361,106v115.8L339.101,241L256,216.7V91h90C354.401,91,361,97.599,361,106z"/>
<path style="fill:#FD3018;" d="M361,221.8v4.2c0,57.9-47.1,105-105,105s-105-47.1-105-105v-50.4c34.2-9.901,71.4-8.401,105,4.799
	c10.201,3.9,20.4,9.3,30,15.601C308.8,211.3,334.6,219.399,361,221.8z"/>
<path style="fill:#E61E14;" d="M361,221.8v4.2c0,57.9-47.1,105-105,105V180.399c10.201,3.9,20.4,9.3,30,15.601
	C308.8,211.3,334.6,219.399,361,221.8z"/>
<path style="fill:#FD4E26;" d="M256,0C115,0,0,114.699,0,256c0,140.7,115,256,256,256c141.301,0,256-115.6,256-256
	C512,115,396.7,0,256,0z M256,482C132.1,482.3,29.7,380.2,30,256c0-57.301,22.599-109.501,56.8-147.9L256,277.299L403.9,425.2
	C365.501,459.399,313.299,482,256,482z M425.2,403.9L108.1,86.8C146.499,52.599,198.701,30,256,30c124.2,0,226,101.8,226,226
	C482,313.599,459.401,365.499,425.2,403.9z"/>
<path style="fill:#FD3018;" d="M512,256c0,140.4-114.699,256-256,256v-30c57.299,0,109.501-22.601,147.9-56.8L256,277.299V234.7
	l169.2,169.2C459.4,365.499,482,313.6,482,256c0-124.2-101.8-226-226-226V0C396.7,0,512,115,512,256z"/>
<path style="fill:#CAE8F9;" d="M331,406c0,8.399-6.599,15-15,15H196c-8.401,0-15-6.601-15-15c0-8.401,6.599-15,15-15h120
	C324.401,391,331,397.599,331,406z"/>
<path style="fill:#B7E0F6;" d="M331,406c0,8.399-6.599,15-15,15h-60v-30h60C324.401,391,331,397.599,331,406z"/>
<g>
</g>
<g>
</g>
<g>
</g>
<g>
</g>
<g>
</g>
<g>
</g>
<g>
</g>
<g>
</g>
<g>
</g>
<g>
</g>
<g>
</g>
<g>
</g>
<g>
</g>
<g>
</g>
<g>
</g>
</svg>
