<?xml version="1.0" encoding="iso-8859-1"?>
<!-- Generator: Adobe Illustrator 19.0.0, SVG Export Plug-In . SVG Version: 6.00 Build 0)  -->
<svg version="1.1" id="Capa_1" xmlns="http://www.w3.org/2000/svg" xmlns:xlink="http://www.w3.org/1999/xlink" x="0px" y="0px"
	 viewBox="0 0 512.001 512.001" style="enable-background:new 0 0 512.001 512.001;" xml:space="preserve">
<path style="fill:#F8ECFF;" d="M473.875,458.162l28.126-42.184c-15.796,0-281.669,0-415.94,0l28.126,42.184
	c7.409,11.129,19.897,17.808,33.276,17.808h293.136C453.977,475.97,466.466,469.291,473.875,458.162z"/>
<g>
	<path style="fill:#FEA832;" d="M267.373,276.154c-0.055-0.132-0.112-0.263-0.167-0.394
		C267.261,275.891,267.318,276.022,267.373,276.154z"/>
	<path style="fill:#FEA832;" d="M265.591,272.107c-0.033-0.07-0.066-0.141-0.099-0.211
		C265.525,271.967,265.558,272.037,265.591,272.107z"/>
	<path style="fill:#FEA832;" d="M453.081,346.758c-37.696-51.008-98.257-84.093-166.551-84.093c-4.139,0-8.249,0.13-12.327,0.37
		c2.019,11.28,1.831,22.644-0.612,33.38c-3.027,13.302-9.487,25.642-19.486,35.645c-8.771,8.768-19.18,14.759-30.372,18.15
		c14.324-22.616,16.193-52.305,5.271-79.423c-69.331,20.023-123.698,75.311-142.406,145.193h379.41
		C466.006,391.644,461.437,368.327,453.081,346.758z"/>
	<path style="fill:#FEA832;" d="M263.637,268.102c-0.012-0.023-0.024-0.046-0.036-0.07
		C263.613,268.056,263.625,268.079,263.637,268.102z"/>
	<path style="fill:#FEA832;" d="M271.637,288.354c-0.091-0.319-0.192-0.636-0.286-0.955
		C271.444,287.717,271.546,288.035,271.637,288.354z"/>
	<path style="fill:#FEA832;" d="M272.701,292.397c-0.079-0.326-0.171-0.651-0.254-0.977
		C272.529,291.746,272.622,292.071,272.701,292.397z"/>
	<path style="fill:#FEA832;" d="M268.975,280.222c-0.074-0.2-0.153-0.399-0.229-0.599
		C268.822,279.822,268.901,280.022,268.975,280.222z"/>
	<path style="fill:#FEA832;" d="M270.395,284.291c-0.087-0.265-0.181-0.529-0.27-0.794
		C270.214,283.762,270.309,284.026,270.395,284.291z"/>
</g>
<g>
	<path style="fill:#FED42D;" d="M58.939,123c-0.129,1.093-0.218,2.189-0.287,3.287c1.002-4.977,1.305-9.288,0.647-12.969
		C59.498,116.237,59.36,119.457,58.939,123z"/>
	<path style="fill:#FED42D;" d="M212.098,242.792c-47.003-55.686-102.579-21.809-147.839-83.783
		c-6.75-9.256-7.96-21.217-5.662-32.437c0.02-0.097,0.036-0.19,0.055-0.287c0.07-1.097,0.158-2.194,0.287-3.287
		c0.422-3.543,0.56-6.764,0.36-9.684c-0.512-2.867-1.603-5.356-3.4-7.485c-1.492-1.768-3.323-3.146-5.393-4.116
		c-7.983,11.769-3.342,23.174-3.183,23.562c-0.44-0.18-15.038-6.149-28.276,7.079c-10.459,10.469-11.588,23.757-4.389,30.956
		c4.399,4.399,10.959,5.339,19.787,4.269c10.999-1.34,22.437,0.78,30.796,8.059c51.337,44.69,23.879,89.322,58.012,136.812
		c24.382,34.01,66.12,48.167,100.481,37.757C243.243,319.402,239.678,275.467,212.098,242.792z"/>
</g>
<path d="M336.023,285.995c5.519,0,9.999-4.479,9.999-9.999s-4.479-9.999-9.999-9.999s-9.999,4.479-9.999,9.999
	S330.504,285.995,336.023,285.995z"/>
<path d="M363.399,304.889c23.347,19.864,39.803,45.364,47.591,73.74c1.464,5.333,6.969,8.455,12.288,6.996
	c5.325-1.462,8.457-6.963,6.996-12.288c-8.855-32.266-27.499-61.201-53.916-83.679c-4.205-3.579-10.517-3.07-14.095,1.136
	C358.685,295,359.194,301.31,363.399,304.889z"/>
<path d="M35.652,177.507c5.407-0.659,15.589-0.798,23.022,5.675c26.153,22.766,29.569,44.641,33.525,69.97
	c0.977,6.254,1.985,12.676,3.372,19.208c-36.028,36.625-56.812,83.562-59.259,133.62H10.066c-3.688,0-7.076,2.03-8.816,5.281
	c-1.74,3.251-1.549,7.196,0.497,10.265l28.122,42.179c9.282,13.941,24.833,22.265,41.598,22.265h369.131
	c16.766,0,32.317-8.324,41.595-22.26l28.126-42.184c2.046-3.068,2.237-7.013,0.497-10.265c-1.74-3.252-5.128-5.281-8.816-5.281
	h-26.246c-5.364-110-100.542-200.378-220.467-199.965c-24.912-25.713-51.54-31.37-80.005-35.817
	c-25.347-3.959-47.237-7.379-69.987-33.575c-6.47-7.459-6.362-17.657-5.724-23.062c0.954-8.007,1.25-19.622-7.148-28.019
	c-11.595-11.597-30.982-9.711-45.098,4.392c-8.179,8.185-10.914,16.833-11.422,23.928c-7.096,0.51-15.746,3.247-23.934,11.427
	c-14.097,14.111-15.982,33.497-4.386,45.093C16.002,178.797,27.632,178.48,35.652,177.507z M483.318,425.977l-17.765,26.644
	c-5.565,8.36-14.894,13.35-24.954,13.35H71.469c-10.06,0-19.387-4.99-24.957-13.355l-17.762-26.639H483.318z M455.731,405.979
	H56.339c2.235-41.111,18.232-79.869,45.823-111.337c5.61,14.083,14.058,26.814,24.678,37.408
	c38.521,38.521,98.848,42.555,134.336,7.078c27.723-27.734,31.101-70.094,13.884-105.139c-1.244-2.536-2.602-5.018-4.047-7.454
	C370.843,233.591,450.499,310.583,455.731,405.979z M26.113,139.429c7.788-7.782,15.79-5.477,17.266-4.955
	c3.648,1.567,8.039,0.858,11.019-2.122c2.952-2.952,3.669-7.291,2.158-10.921c-0.478-1.309-2.993-9.446,4.912-17.357
	c6.554-6.548,13.834-7.38,16.819-4.393c0.62,0.619,2.505,2.504,1.431,11.523c-1.774,15.008,1.947,28.688,10.479,38.526
	c27.545,31.717,55.23,36.041,82.002,40.225c28.983,4.527,50.564,9.633,71.35,32.782c5.466,6.112,10.028,12.86,13.56,20.063
	c14.207,28.919,10.158,61.949-10.073,82.187c-27.292,27.284-74.868,24.109-106.064-7.086
	c-20.414-20.363-24.957-41.859-29.015-67.836c-4.177-26.75-8.498-54.412-40.152-81.966c-8.195-7.136-19.069-10.902-31.161-10.902
	c-7.209,0-15.748,2.217-18.918-0.957C18.74,153.256,19.571,145.977,26.113,139.429z"/>
<path d="M212.086,114.34c9.49-6.324,15.155-16.91,15.155-28.317s-5.666-21.994-15.155-28.317
	c-4.595-3.063-10.803-1.819-13.865,2.776c-3.063,4.595-1.82,10.803,2.776,13.865c3.97,2.646,6.247,6.902,6.247,11.677
	s-2.277,9.031-6.247,11.677c-9.49,6.324-15.155,16.91-15.155,28.317c0,11.407,5.666,21.994,15.155,28.317
	c4.575,3.05,10.79,1.839,13.865-2.776c3.063-4.595,1.82-10.803-2.776-13.865c-3.97-2.646-6.247-6.902-6.247-11.677
	C205.838,121.241,208.115,116.986,212.086,114.34z"/>
<path d="M282.076,84.344c9.49-6.324,15.155-16.91,15.155-28.317s-5.666-21.994-15.155-28.317
	c-4.595-3.063-10.803-1.819-13.865,2.776c-3.063,4.595-1.82,10.803,2.776,13.865c3.97,2.646,6.247,6.902,6.247,11.677
	s-2.277,9.031-6.247,11.677c-9.49,6.324-15.155,16.91-15.155,28.317s5.666,21.994,15.155,28.317
	c4.575,3.05,10.79,1.839,13.865-2.776c3.063-4.595,1.82-10.803-2.776-13.865c-3.97-2.646-6.247-6.902-6.247-11.677
	S278.106,86.99,282.076,84.344z"/>
<path d="M332.07,154.335c9.49-6.324,15.155-16.91,15.155-28.317s-5.666-21.994-15.155-28.317
	c-4.594-3.063-10.803-1.819-13.865,2.776c-3.063,4.595-1.82,10.803,2.776,13.865c3.97,2.646,6.247,6.902,6.247,11.677
	c0,4.775-2.277,9.031-6.247,11.677c-9.49,6.324-15.155,16.91-15.155,28.317s5.666,21.994,15.155,28.317
	c4.575,3.05,10.79,1.839,13.865-2.776c3.063-4.595,1.82-10.803-2.776-13.865c-3.97-2.646-6.247-6.902-6.247-11.677
	C325.822,161.237,328.099,156.98,332.07,154.335z"/>
<g>
</g>
<g>
</g>
<g>
</g>
<g>
</g>
<g>
</g>
<g>
</g>
<g>
</g>
<g>
</g>
<g>
</g>
<g>
</g>
<g>
</g>
<g>
</g>
<g>
</g>
<g>
</g>
<g>
</g>
</svg>
