<?xml version="1.0" encoding="iso-8859-1"?>
<!-- Generator: Adobe Illustrator 19.0.0, SVG Export Plug-In . SVG Version: 6.00 Build 0)  -->
<svg version="1.1" id="Capa_1" xmlns="http://www.w3.org/2000/svg" xmlns:xlink="http://www.w3.org/1999/xlink" x="0px" y="0px"
	 viewBox="0 0 512 512" style="enable-background:new 0 0 512 512;" xml:space="preserve">
<polygon style="fill:#A0D468;" points="482.64,404 461.36,372 424,316 88,316 66.64,348 8,436 78.8,436 433.2,436 504,436 "/>
<path style="fill:#ED5565;" d="M239.2,356c-9.6-9.768-22.408-23.512-35.768-40C171.2,276.08,136,219.68,136,164
	c0-66.24,53.68-120,120-120s120,53.76,120,120c0,55.68-35.2,112.08-67.44,152c-13.36,16.488-26.168,30.232-35.768,40h-0.08
	c-10.08,10.16-16.72,16-16.72,16S249.36,366.16,239.2,356z"/>
<path style="fill:#DA4453;" d="M256,44c-5.44,0-10.752,0.488-16,1.184c58.728,7.84,104,58,104,118.816
	c0,55.68-35.2,112.08-67.44,152c-13.36,16.488-26.168,30.232-35.768,40h-0.08c-0.264,0.264-0.504,0.496-0.76,0.752
	C249.672,366.424,256,372,256,372s6.64-5.84,16.72-16h0.08c9.6-9.768,22.408-23.512,35.768-40C340.8,276.08,376,219.68,376,164
	C376,97.76,322.32,44,256,44z"/>
<polygon style="fill:#FFCE54;" points="256,220 216,220 216,152.56 256,124 296,152.56 296,220 "/>
<g>
	<polygon style="fill:#8CC152;" points="482.64,404 434.72,404 434.64,404 402.64,372 461.36,372 	"/>
	<polygon style="fill:#8CC152;" points="304.8,388 339.44,356 382.96,428 193.04,428 161.04,396 	"/>
</g>
<g>
	<polygon style="fill:#E6E9ED;" points="482.64,404 504,436 433.2,436 417.92,404 	"/>
	<path style="fill:#E6E9ED;" d="M256,372c0,0,6.64-5.84,16.72-16h0.08h66.64l11.52,40H161.04l11.52-40h66.64
		C249.36,366.16,256,372,256,372z"/>
	<polygon style="fill:#E6E9ED;" points="120.72,348 78.8,436 8,436 66.64,348 	"/>
</g>
<polygon style="fill:#8CC152;" points="152.72,380 126.04,436 78.8,436 120.72,348 "/>
<polygon style="fill:#81B53E;" points="504,436 504,468 8,468 8,436 78.8,436 433.2,436 "/>
<polygon style="fill:#E6E9ED;" points="461.36,372 402.72,372 402.64,372 376,316 424,316 "/>
<path d="M504,444H8c-2.952,0-5.664-1.624-7.056-4.224s-1.232-5.76,0.4-8.208l80-120c2.44-3.672,7.4-4.672,11.096-2.216
	c3.68,2.456,4.672,7.416,2.216,11.096L22.944,428h466.112l-71.712-107.56c-2.456-3.68-1.464-8.64,2.216-11.096
	c3.688-2.456,8.648-1.456,11.096,2.216l80,120c1.632,2.456,1.792,5.608,0.4,8.208S506.952,444,504,444z"/>
<path d="M504,476H8c-4.424,0-8-3.576-8-8v-32c0-4.424,3.576-8,8-8h496c4.424,0,8,3.576,8,8v32C512,472.424,508.424,476,504,476z
	 M16,460h480v-16H16V460z"/>
<path d="M78.792,444c-1.152,0-2.32-0.248-3.44-0.784c-3.984-1.896-5.68-6.672-3.776-10.664l41.944-88
	c1.888-3.976,6.632-5.688,10.664-3.776c3.984,1.896,5.68,6.672,3.776,10.664l-41.944,88C84.648,442.32,81.784,444,78.792,444z"/>
<path d="M161.072,404c-0.736,0-1.48-0.104-2.208-0.312c-4.248-1.216-6.704-5.648-5.488-9.888l11.472-40
	c1.208-4.256,5.688-6.696,9.888-5.488c4.248,1.216,6.704,5.648,5.488,9.888l-11.472,40C167.752,401.72,164.544,404,161.072,404z"/>
<path d="M433.208,444c-2.992,0-5.856-1.68-7.224-4.552l-15.264-32.016c-1.904-3.992-0.208-8.768,3.776-10.664
	c4.032-1.912,8.776-0.2,10.664,3.776l15.264,32.016c1.904,3.992,0.208,8.768-3.776,10.664C435.528,443.752,434.36,444,433.208,444z"
	/>
<path d="M402.68,379.96c-2.992,0-5.856-1.68-7.224-4.552l-26.672-55.96c-1.904-3.992-0.208-8.768,3.776-10.664
	c4.024-1.912,8.768-0.2,10.664,3.776l26.672,55.96c1.904,3.992,0.208,8.768-3.776,10.664C405,379.712,403.832,379.96,402.68,379.96z
	"/>
<path d="M350.928,404c-3.48,0-6.672-2.28-7.68-5.8l-11.472-40c-1.216-4.24,1.232-8.672,5.488-9.888
	c4.208-1.208,8.672,1.224,9.888,5.488l11.472,40c1.216,4.24-1.232,8.672-5.488,9.888C352.408,403.896,351.664,404,350.928,404z"/>
<path d="M120.752,356H66.664c-4.424,0-8-3.576-8-8s3.576-8,8-8h54.088c4.424,0,8,3.576,8,8S125.168,356,120.752,356z"/>
<path d="M482.664,412h-64.712c-4.424,0-8-3.576-8-8s3.576-8,8-8h64.712c4.424,0,8,3.576,8,8S487.088,412,482.664,412z"/>
<path d="M461.336,380h-58.64c-4.424,0-8-3.576-8-8s3.576-8,8-8h58.64c4.424,0,8,3.576,8,8S465.76,380,461.336,380z"/>
<path d="M240,364h-67.472c-4.424,0-8-3.576-8-8s3.576-8,8-8H240c4.424,0,8,3.576,8,8S244.424,364,240,364z"/>
<path d="M339.472,364h-66.728c-4.424,0-8-3.576-8-8s3.576-8,8-8h66.728c4.424,0,8,3.576,8,8S343.888,364,339.472,364z"/>
<path d="M350.936,404H161.064c-4.424,0-8-3.576-8-8s3.576-8,8-8h189.872c4.424,0,8,3.576,8,8S355.36,404,350.936,404z"/>
<path d="M256,380c-1.88,0-3.768-0.664-5.272-1.984C245.72,373.624,128,269.272,128,164c0-70.576,57.424-128,128-128
	s128,57.424,128,128c0,105.272-117.72,209.624-122.728,214.016C259.768,379.336,257.88,380,256,380z M256,52
	c-61.76,0-112,50.24-112,112c0,85.872,89.152,175.552,112,197.128C278.848,339.56,368,249.872,368,164C368,102.24,317.76,52,256,52z
	"/>
<path d="M203.416,324H88c-4.424,0-8-3.576-8-8s3.576-8,8-8h115.416c4.424,0,8,3.576,8,8S207.832,324,203.416,324z"/>
<path d="M424,324H308.576c-4.424,0-8-3.576-8-8s3.576-8,8-8H424c4.424,0,8,3.576,8,8S428.424,324,424,324z"/>
<path d="M304,228h-96c-4.424,0-8-3.584-8-8s3.576-8,8-8h96c4.424,0,8,3.584,8,8S308.424,228,304,228z"/>
<path d="M216,228c-4.424,0-8-3.584-8-8v-96c0-4.416,3.576-8,8-8s8,3.584,8,8v96C224,224.416,220.424,228,216,228z"/>
<path d="M296,228c-4.424,0-8-3.584-8-8v-67.432c0-4.416,3.576-8,8-8s8,3.584,8,8V220C304,224.416,300.424,228,296,228z"/>
<path d="M200.008,172c-2.504,0-4.952-1.168-6.512-3.352c-2.568-3.592-1.736-8.592,1.856-11.16l56-40
	c3.584-2.56,8.584-1.736,11.16,1.864c2.568,3.592,1.736,8.592-1.856,11.16l-56,40C203.24,171.512,201.616,172,200.008,172z"/>
<path d="M311.992,172c-1.608,0-3.232-0.488-4.64-1.488l-56-40c-3.592-2.568-4.432-7.568-1.856-11.16
	c2.568-3.592,7.568-4.424,11.16-1.864l56,40c3.592,2.568,4.432,7.568,1.856,11.16C316.944,170.832,314.496,172,311.992,172z"/>
<path d="M256,228c-4.424,0-8-3.584-8-8v-24c0-4.416,3.576-8,8-8c4.424,0,8,3.584,8,8v24C264,224.416,260.424,228,256,228z"/>
<g>
</g>
<g>
</g>
<g>
</g>
<g>
</g>
<g>
</g>
<g>
</g>
<g>
</g>
<g>
</g>
<g>
</g>
<g>
</g>
<g>
</g>
<g>
</g>
<g>
</g>
<g>
</g>
<g>
</g>
</svg>
